<svg xmlns="http://www.w3.org/2000/svg" xmlns:xlink="http://www.w3.org/1999/xlink" width="500" zoomAndPan="magnify" viewBox="0 0 375 374.999991" height="500" preserveAspectRatio="xMidYMid meet" version="1.0"><defs><clipPath id="3c96d7b5e7"><path d="M 112.5 116.8125 L 262.492188 116.8125 L 262.492188 258.5625 L 112.5 258.5625 Z M 112.5 116.8125 " clip-rule="nonzero"/></clipPath><clipPath id="3a5817623f"><path d="M 51.199219 0 L 374.714844 0 L 374.714844 304.582031 L 51.199219 304.582031 Z M 51.199219 0 " clip-rule="nonzero"/></clipPath><clipPath id="d4acfa9af0"><path d="M 0.257812 71 L 286 71 L 286 356.972656 L 0.257812 356.972656 Z M 0.257812 71 " clip-rule="nonzero"/></clipPath></defs><g clip-path="url(#3c96d7b5e7)"><path fill="#000000" d="M 260.921875 116.953125 C 239.660156 128.585938 195.6875 164.792969 160.605469 222.386719 C 159.464844 224.257812 157.023438 224.855469 155.152344 223.71875 L 155.136719 223.707031 C 154.167969 223.109375 153.222656 222.488281 152.296875 221.832031 C 140.859375 213.738281 115.859375 199.5 115.859375 199.5 C 114.292969 198.621094 112.679688 199.800781 112.535156 201.25 C 112.488281 201.347656 112.488281 201.503906 112.539062 201.710938 C 112.578125 202.035156 112.695312 202.359375 112.90625 202.671875 C 114.992188 207.160156 124.9375 220.808594 134.335938 233.515625 C 144.851562 247.726562 154.15625 255.800781 155.648438 257.0625 C 155.703125 257.113281 155.761719 257.160156 155.820312 257.203125 C 155.847656 257.226562 155.863281 257.242188 155.863281 257.242188 C 158.695312 259.515625 163.070312 258.8125 164.945312 255.445312 C 179.226562 229.769531 225.464844 149.554688 262.105469 118.691406 C 263.082031 117.867188 262.042969 116.34375 260.921875 116.953125 " fill-opacity="1" fill-rule="nonzero"/></g><g clip-path="url(#3a5817623f)"><path fill="#5ce1e6" d="M 371.332031 0.304688 C 325.585938 25.285156 230.957031 103.046875 155.46875 226.746094 C 153.011719 230.769531 147.765625 232.046875 143.734375 229.605469 L 143.699219 229.585938 C 141.621094 228.304688 139.585938 226.964844 137.589844 225.5625 C 112.988281 208.171875 59.183594 177.597656 59.183594 177.597656 C 55.816406 175.703125 52.34375 178.242188 52.035156 181.355469 C 51.929688 181.558594 51.941406 181.898438 52.046875 182.347656 C 52.128906 183.039062 52.382812 183.738281 52.832031 184.410156 C 57.328125 194.050781 78.714844 223.359375 98.945312 250.652344 C 121.570312 281.171875 141.589844 298.515625 144.804688 301.226562 C 144.929688 301.332031 145.050781 301.429688 145.171875 301.53125 C 145.230469 301.578125 145.269531 301.609375 145.269531 301.609375 C 151.363281 306.496094 160.777344 304.984375 164.808594 297.75 C 195.542969 242.609375 295.039062 70.324219 373.878906 4.035156 C 375.980469 2.261719 373.742188 -1.011719 371.332031 0.304688 " fill-opacity="1" fill-rule="nonzero"/></g><g clip-path="url(#d4acfa9af0)"><path fill="#079697" d="M 254.800781 319.53125 C 254.800781 323.105469 251.90625 326 248.339844 326 L 37.667969 326 C 34.101562 326 31.210938 323.105469 31.210938 319.53125 L 31.210938 108.691406 C 31.210938 105.125 34.101562 102.226562 37.667969 102.226562 L 223.449219 102.226562 C 232.875 91.5625 242.53125 81.214844 252.367188 71.253906 L 29.097656 71.253906 C 13.171875 71.253906 0.257812 84.175781 0.257812 100.121094 L 0.257812 328.109375 C 0.257812 344.050781 13.171875 356.972656 29.097656 356.972656 L 256.914062 356.972656 C 272.835938 356.972656 285.75 344.050781 285.75 328.109375 L 285.75 138.734375 C 275.066406 154.164062 264.675781 169.835938 254.800781 185.175781 L 254.800781 319.53125 " fill-opacity="1" fill-rule="nonzero"/></g></svg>