<svg xmlns="http://www.w3.org/2000/svg" xmlns:xlink="http://www.w3.org/1999/xlink" width="500" zoomAndPan="magnify" viewBox="0 0 375 374.999991" height="500" preserveAspectRatio="xMidYMid meet" version="1.0"><defs><clipPath id="a65da31afd"><path d="M 322 43.675781 L 374.828125 43.675781 L 374.828125 97 L 322 97 Z M 322 43.675781 " clip-rule="nonzero"/></clipPath><clipPath id="8688dc624b"><path d="M 146.828125 43.675781 L 374.828125 43.675781 L 374.828125 271.675781 L 146.828125 271.675781 Z M 146.828125 43.675781 " clip-rule="nonzero"/></clipPath><clipPath id="b40020a7d9"><path d="M 128 290 L 174 290 L 174 327 L 128 327 Z M 128 290 " clip-rule="nonzero"/></clipPath><clipPath id="8116010e83"><path d="M 189.648438 156.949219 L 168.964844 331.226562 L -5.3125 310.542969 L 15.371094 136.265625 Z M 189.648438 156.949219 " clip-rule="nonzero"/></clipPath><clipPath id="7c6e148e7a"><path d="M 189.648438 156.949219 L 168.964844 331.226562 L -5.3125 310.542969 L 15.371094 136.265625 Z M 189.648438 156.949219 " clip-rule="nonzero"/></clipPath><clipPath id="a5b6aeeaf2"><path d="M 10 140 L 174 140 L 174 327 L 10 327 Z M 10 140 " clip-rule="nonzero"/></clipPath><clipPath id="d5dd0e4dc5"><path d="M 189.648438 156.949219 L 168.964844 331.226562 L -5.3125 310.542969 L 15.371094 136.265625 Z M 189.648438 156.949219 " clip-rule="nonzero"/></clipPath><clipPath id="f7db49b783"><path d="M 189.648438 156.949219 L 168.964844 331.226562 L -5.3125 310.542969 L 15.371094 136.265625 Z M 189.648438 156.949219 " clip-rule="nonzero"/></clipPath></defs><g clip-path="url(#a65da31afd)"><path fill="#ffffff" d="M 373.445312 96.355469 C 373.304688 96.351562 373.167969 96.328125 373.03125 96.285156 L 336.085938 83.179688 C 335.710938 83.046875 335.453125 82.792969 335.320312 82.414062 L 322.21875 45.476562 C 322.136719 45.242188 322.125 45.007812 322.179688 44.769531 C 322.238281 44.527344 322.355469 44.324219 322.53125 44.152344 C 322.710938 43.984375 322.921875 43.875 323.164062 43.828125 C 323.402344 43.78125 323.640625 43.804688 323.867188 43.894531 L 359.402344 58.398438 C 359.730469 58.53125 359.957031 58.761719 360.089844 59.089844 L 374.609375 94.632812 C 374.683594 94.828125 374.710938 95.027344 374.691406 95.234375 C 374.667969 95.441406 374.597656 95.628906 374.480469 95.800781 C 374.367188 95.972656 374.214844 96.109375 374.03125 96.207031 C 373.851562 96.304688 373.65625 96.351562 373.445312 96.355469 Z M 337.488281 81.007812 L 371.226562 92.976562 L 357.96875 60.527344 L 325.519531 47.277344 Z M 337.488281 81.007812 " fill-opacity="1" fill-rule="nonzero"/></g><g clip-path="url(#8688dc624b)"><path fill="#ffffff" d="M 374.703125 94.824219 C 374.597656 94.371094 374.328125 94.070312 373.890625 93.917969 L 337.492188 81.007812 L 324.589844 44.609375 C 324.554688 44.511719 324.507812 44.417969 324.445312 44.328125 C 324.386719 44.242188 324.320312 44.160156 324.238281 44.089844 C 324.160156 44.023438 324.074219 43.960938 323.980469 43.914062 C 323.882812 43.867188 323.785156 43.832031 323.683594 43.808594 C 323.578125 43.785156 323.472656 43.773438 323.367188 43.777344 C 323.261719 43.78125 323.160156 43.796875 323.058594 43.828125 C 322.953125 43.855469 322.859375 43.898438 322.765625 43.953125 C 322.675781 44.007812 322.59375 44.070312 322.519531 44.144531 L 147.359375 219.320312 L 147.3125 219.371094 L 147.277344 219.402344 C 147.101562 219.574219 146.980469 219.78125 146.925781 220.023438 C 146.867188 220.261719 146.882812 220.5 146.964844 220.734375 L 160.070312 257.667969 C 160.09375 257.726562 160.125 257.785156 160.15625 257.84375 L 160.1875 257.90625 C 160.234375 257.980469 160.289062 258.046875 160.351562 258.105469 C 160.414062 258.167969 160.480469 258.21875 160.550781 258.269531 L 160.609375 258.300781 C 160.667969 258.332031 160.726562 258.359375 160.792969 258.382812 L 197.730469 271.488281 C 197.867188 271.535156 198.007812 271.5625 198.152344 271.5625 C 198.511719 271.5625 198.8125 271.433594 199.0625 271.171875 L 199.0625 271.136719 L 199.117188 271.085938 L 374.332031 95.988281 C 374.671875 95.667969 374.796875 95.28125 374.703125 94.824219 Z M 149.757812 220.476562 L 322.882812 47.351562 L 335.058594 81.667969 L 161.769531 254.957031 L 149.683594 220.886719 C 149.726562 220.753906 149.75 220.617188 149.757812 220.476562 Z M 198.027344 268.742188 C 197.886719 268.742188 197.75 268.769531 197.617188 268.820312 L 163.539062 256.730469 L 336.832031 83.445312 L 371.148438 95.621094 Z M 198.027344 268.742188 " fill-opacity="1" fill-rule="nonzero"/></g><g clip-path="url(#b40020a7d9)"><g clip-path="url(#8116010e83)"><g clip-path="url(#7c6e148e7a)"><path fill="#ffffff" d="M 128.824219 325.390625 C 128.839844 325.285156 128.867188 325.179688 128.914062 325.082031 L 142.28125 298.03125 C 142.417969 297.753906 142.636719 297.582031 142.9375 297.515625 L 172.363281 290.847656 C 172.765625 290.757812 173.09375 290.878906 173.34375 291.210938 C 173.59375 291.542969 173.621094 291.890625 173.421875 292.253906 L 159.113281 318.097656 C 158.980469 318.335938 158.785156 318.492188 158.519531 318.5625 L 130.035156 326.433594 C 129.878906 326.476562 129.722656 326.480469 129.570312 326.441406 C 129.414062 326.40625 129.273438 326.335938 129.152344 326.234375 C 129.03125 326.128906 128.941406 326 128.886719 325.851562 C 128.828125 325.703125 128.808594 325.550781 128.824219 325.390625 Z M 143.816406 299.296875 L 131.605469 324 L 157.617188 316.8125 L 170.6875 293.207031 Z M 143.816406 299.296875 " fill-opacity="1" fill-rule="nonzero"/></g></g></g><g clip-path="url(#a5b6aeeaf2)"><g clip-path="url(#d5dd0e4dc5)"><g clip-path="url(#f7db49b783)"><path fill="#ffffff" d="M 129.882812 326.488281 C 130.234375 326.453125 130.488281 326.273438 130.644531 325.953125 L 143.816406 299.300781 L 172.808594 292.742188 C 172.96875 292.703125 173.113281 292.628906 173.238281 292.519531 C 173.359375 292.410156 173.449219 292.277344 173.503906 292.121094 C 173.558594 291.964844 173.574219 291.804688 173.546875 291.640625 C 173.519531 291.476562 173.453125 291.328125 173.351562 291.199219 L 55.339844 141.421875 L 55.308594 141.378906 L 55.285156 141.351562 C 55.035156 141.019531 54.707031 140.898438 54.296875 140.992188 L 24.878906 147.65625 C 24.828125 147.671875 24.78125 147.6875 24.734375 147.710938 L 24.683594 147.726562 C 24.625 147.757812 24.570312 147.792969 24.515625 147.832031 C 24.464844 147.875 24.417969 147.921875 24.375 147.972656 L 24.34375 148.011719 C 24.316406 148.054688 24.289062 148.097656 24.265625 148.144531 L 10.898438 175.191406 C 10.847656 175.289062 10.816406 175.394531 10.804688 175.507812 C 10.769531 175.78125 10.84375 176.023438 11.019531 176.238281 L 11.046875 176.242188 L 11.078125 176.289062 L 129.023438 326.101562 C 129.238281 326.390625 129.523438 326.519531 129.882812 326.488281 Z M 54.242188 143.148438 L 170.867188 291.1875 L 143.53125 297.378906 L 26.796875 149.203125 L 53.9375 143.054688 C 54.035156 143.101562 54.136719 143.132812 54.242188 143.148438 Z M 12.96875 175.664062 C 12.980469 175.558594 12.972656 175.453125 12.949219 175.347656 L 25.277344 150.394531 L 142.015625 298.578125 L 129.59375 323.703125 Z M 12.96875 175.664062 " fill-opacity="1" fill-rule="nonzero"/></g></g></g></svg>